  0
SECTION
  2
HEADER
  9
$ACADVER
  1
AC1009
  9
$DWGCODEPAGE
  3
ansi_1252
  9
$INSBASE
 10
0.0
 20
0.0
 30
0.0
  9
$EXTMIN
 10
-341.3000001907346
 20
-325.3000030517575
 30
0.0
  9
$EXTMAX
 10
-5.000000000000011
 20
183.7854359978691
 30
54.0
  9
$LIMMIN
 10
0.0
 20
0.0
  9
$LIMMAX
 10
12.0
 20
9.0
  9
$ORTHOMODE
 70
     0
  9
$REGENMODE
 70
     1
  9
$FILLMODE
 70
     1
  9
$QTEXTMODE
 70
     0
  9
$MIRRTEXT
 70
     1
  9
$DRAGMODE
 70
     2
  9
$LTSCALE
 40
1.0
  9
$OSMODE
 70
    37
  9
$ATTMODE
 70
     1
  9
$TEXTSIZE
 40
0.2
  9
$TRACEWID
 40
0.05
  9
$TEXTSTYLE
  7
STANDARD
  9
$CLAYER
  8
DEFAULT
  9
$CELTYPE
  6
BYLAYER
  9
$CECOLOR
 62
   256
  9
$DIMSCALE
 40
1.0
  9
$DIMASZ
 40
0.18
  9
$DIMEXO
 40
0.0625
  9
$DIMDLI
 40
0.38
  9
$DIMRND
 40
0.0
  9
$DIMDLE
 40
0.0
  9
$DIMEXE
 40
0.18
  9
$DIMTP
 40
0.0
  9
$DIMTM
 40
0.0
  9
$DIMTXT
 40
0.18
  9
$DIMCEN
 40
0.09
  9
$DIMTSZ
 40
0.0
  9
$DIMTOL
 70
     0
  9
$DIMLIM
 70
     0
  9
$DIMTIH
 70
     1
  9
$DIMTOH
 70
     1
  9
$DIMSE1
 70
     0
  9
$DIMSE2
 70
     0
  9
$DIMTAD
 70
     0
  9
$DIMZIN
 70
     0
  9
$DIMBLK
  1

  9
$DIMASO
 70
     1
  9
$DIMSHO
 70
     1
  9
$DIMPOST
  1

  9
$DIMAPOST
  1

  9
$DIMALT
 70
     0
  9
$DIMALTD
 70
     2
  9
$DIMALTF
 40
25.4
  9
$DIMLFAC
 40
1.0
  9
$DIMTOFL
 70
     0
  9
$DIMTVP
 40
0.0
  9
$DIMTIX
 70
     0
  9
$DIMSOXD
 70
     0
  9
$DIMSAH
 70
     0
  9
$DIMBLK1
  1

  9
$DIMBLK2
  1

  9
$DIMSTYLE
  2
STANDARD_ACAD
  9
$DIMCLRD
 70
     0
  9
$DIMCLRE
 70
     0
  9
$DIMCLRT
 70
     0
  9
$DIMTFAC
 40
1.0
  9
$DIMGAP
 40
0.09
  9
$LUNITS
 70
     2
  9
$LUPREC
 70
     3
  9
$SKETCHINC
 40
0.1
  9
$FILLETRAD
 40
0.0
  9
$AUNITS
 70
     0
  9
$AUPREC
 70
     0
  9
$MENU
  1
.
  9
$ELEVATION
 40
0.0
  9
$PELEVATION
 40
0.0
  9
$THICKNESS
 40
0.0
  9
$LIMCHECK
 70
     0
  9
$CHAMFERA
 40
0.0
  9
$CHAMFERB
 40
0.0
  9
$SKPOLY
 70
     0
  9
$TDCREATE
 40
2460245.824862604
  9
$TDUPDATE
 40
2460245.82487257
  9
$TDINDWG
 40
0.0000000116
  9
$TDUSRTIMER
 40
0.0000000116
  9
$USRTIMER
 70
     1
  9
$ANGBASE
 50
0.0
  9
$ANGDIR
 70
     0
  9
$PDMODE
 70
     0
  9
$PDSIZE
 40
0.0
  9
$PLINEWID
 40
0.0
  9
$COORDS
 70
     1
  9
$SPLFRAME
 70
     0
  9
$SPLINETYPE
 70
     6
  9
$SPLINESEGS
 70
     8
  9
$ATTDIA
 70
     0
  9
$ATTREQ
 70
     1
  9
$HANDLING
 70
     1
  9
$HANDSEED
  5
A3
  9
$SURFTAB1
 70
     6
  9
$SURFTAB2
 70
     6
  9
$SURFTYPE
 70
     6
  9
$SURFU
 70
     6
  9
$SURFV
 70
     6
  9
$UCSNAME
  2

  9
$UCSORG
 10
0.0
 20
0.0
 30
0.0
  9
$UCSXDIR
 10
1.0
 20
0.0
 30
0.0
  9
$UCSYDIR
 10
0.0
 20
1.0
 30
0.0
  9
$PUCSNAME
  2

  9
$PUCSORG
 10
0.0
 20
0.0
 30
0.0
  9
$PUCSXDIR
 10
1.0
 20
0.0
 30
0.0
  9
$PUCSYDIR
 10
0.0
 20
1.0
 30
0.0
  9
$USERI1
 70
     0
  9
$USERI2
 70
     0
  9
$USERI3
 70
     0
  9
$USERI4
 70
     0
  9
$USERI5
 70
     0
  9
$USERR1
 40
0.0
  9
$USERR2
 40
0.0
  9
$USERR3
 40
0.0
  9
$USERR4
 40
0.0
  9
$USERR5
 40
0.0
  9
$WORLDVIEW
 70
     1
  9
$SHADEDGE
 70
     3
  9
$SHADEDIF
 70
    70
  9
$TILEMODE
 70
     1
  9
$MAXACTVP
 70
    64
  9
$PLIMCHECK
 70
     0
  9
$PEXTMIN
 10
1.000000000000000E+20
 20
1.000000000000000E+20
 30
1.000000000000000E+20
  9
$PEXTMAX
 10
-1.000000000000000E+20
 20
-1.000000000000000E+20
 30
-1.000000000000000E+20
  9
$PLIMMIN
 10
0.0
 20
0.0
  9
$PLIMMAX
 10
12.0
 20
9.0
  9
$UNITMODE
 70
     0
  9
$VISRETAIN
 70
     1
  9
$PLINEGEN
 70
     0
  9
$PSLTSCALE
 70
     1
  0
ENDSEC
  0
SECTION
  2
TABLES
  0
TABLE
  2
VPORT
 70
     1
  0
VPORT
  2
*ACTIVE
 70
     0
 10
0.0
 20
0.0
 11
1.0
 21
1.0
 12
10.42990654205607
 22
4.5
 13
0.0
 23
0.0
 14
0.5
 24
0.5
 15
0.5
 25
0.5
 16
0.0
 26
0.0
 36
1.0
 17
0.0
 27
0.0
 37
0.0
 40
9.0
 41
1.972972972850329
 42
50.0
 43
0.0
 44
0.0
 50
0.0
 51
0.0
 71
     0
 72
   100
 73
     1
 74
     3
 75
     0
 76
     0
 77
     0
 78
     0
  0
ENDTAB
  0
TABLE
  2
LTYPE
 70
     1
  0
LTYPE
  2
CONTINUOUS
 70
     0
  3
Solid line
 72
    65
 73
     0
 40
0.0
  0
ENDTAB
  0
TABLE
  2
LAYER
 70
     2
  0
LAYER
  2
0
 70
     0
 62
     7
  6
CONTINUOUS
  0
LAYER
  2
DEFAULT
 70
     0
 62
     7
  6
CONTINUOUS
  0
ENDTAB
  0
TABLE
  2
STYLE
 70
     1
  0
STYLE
  2
STANDARD
 70
     0
 40
0.0
 41
1.0
 50
0.0
 71
     0
 42
0.2
  3
txt
  4

  0
ENDTAB
  0
TABLE
  2
VIEW
 70
     0
  0
ENDTAB
  0
TABLE
  2
UCS
 70
     0
  0
ENDTAB
  0
TABLE
  2
APPID
 70
     2
  0
APPID
  2
ACAD
 70
     0
  0
APPID
  2
RHINO
 70
     0
  0
ENDTAB
  0
TABLE
  2
DIMSTYLE
 70
     1
  0
DIMSTYLE
  2
STANDARD_ACAD
 70
     0
  3

  4

  5

  6

  7

 40
1.0
 41
0.18
 42
0.0625
 43
0.38
 44
0.18
 45
0.0
 46
0.0
 47
0.0
 48
0.0
140
0.18
141
0.09
142
0.0
143
25.4
144
1.0
145
0.0
146
1.0
147
0.09
 71
     0
 72
     0
 73
     1
 74
     1
 75
     0
 76
     0
 77
     0
 78
     0
170
     0
171
     2
172
     0
173
     0
174
     0
175
     0
176
     0
177
     0
178
     0
  0
ENDTAB
  0
ENDSEC
  0
SECTION
  2
BLOCKS
  0
BLOCK
  8
0
  2
$MODEL_SPACE
 70
     0
 10
0.0
 20
0.0
 30
0.0
  3
$MODEL_SPACE
  1

  0
ENDBLK
  5
21
  8
0
  0
BLOCK
 67
     1
  8
0
  2
$PAPER_SPACE
 70
     0
 10
0.0
 20
0.0
 30
0.0
  3
$PAPER_SPACE
  1

  0
ENDBLK
  5
1D
 67
     1
  8
0
  0
ENDSEC
  0
SECTION
  2
ENTITIES
  0
LINE
  5
60
  8
DEFAULT
 10
-244.8000001907346
 20
-5.814570105646197
 30
54.0
 11
-10.19999980926514
 21
-5.814570105646197
 31
54.0
  0
LINE
  5
61
  8
DEFAULT
 10
-10.19999980926514
 20
-5.814570105646197
 30
54.0
 11
-10.19999980926514
 21
183.7854359978691
 31
54.0
  0
LINE
  5
62
  8
DEFAULT
 10
-10.19999980926514
 20
183.7854359978691
 30
54.0
 11
-244.8000001907346
 21
183.7854359978691
 31
54.0
  0
LINE
  5
63
  8
DEFAULT
 10
-244.8000001907346
 20
183.7854359978691
 30
54.0
 11
-244.8000001907346
 21
-5.814570105646197
 31
54.0
  0
LINE
  5
64
  8
DEFAULT
 10
-234.0000000002208
 20
12.98543294611125
 30
54.0
 11
-212.0
 21
12.98543294611125
 31
54.0
  0
LINE
  5
65
  8
DEFAULT
 10
-212.0
 20
12.98543294611125
 30
54.0
 11
-212.0
 21
34.98543294611125
 31
54.0
  0
LINE
  5
66
  8
DEFAULT
 10
-212.0
 20
34.98543294611125
 30
54.0
 11
-234.0000000002208
 21
34.98543294611125
 31
54.0
  0
LINE
  5
67
  8
DEFAULT
 10
-234.0000000002208
 20
34.98543294611125
 30
54.0
 11
-234.0000000002208
 21
12.98543294611125
 31
54.0
  0
CIRCLE
  5
68
  8
DEFAULT
 10
-241.5337069377493
 20
-2.611063043137904
 30
54.0
 40
3.050000000000011
  0
LINE
  5
69
  8
DEFAULT
 10
-341.3000001907346
 20
-210.9999999999996
 30
27.5
 11
-284.3000001907346
 21
-210.9999999999996
 31
27.5
  0
LINE
  5
6A
  8
DEFAULT
 10
-284.3000001907346
 20
-210.9999999999996
 30
27.5
 11
-284.3000001907346
 21
-37.0
 31
27.5
  0
LINE
  5
6B
  8
DEFAULT
 10
-284.3000001907346
 20
-37.0
 30
27.5
 11
-341.3000001907346
 21
-37.0
 31
27.5
  0
LINE
  5
6C
  8
DEFAULT
 10
-341.3000001907346
 20
-37.0
 30
27.5
 11
-341.3000001907346
 21
-210.9999999999996
 31
27.5
  0
LINE
  5
6D
  8
DEFAULT
 10
-238.9999999999998
 20
-268.3000030517575
 30
27.49999999999995
 11
-238.9999999999998
 21
-325.3000030517575
 31
27.49999999999992
  0
LINE
  5
6E
  8
DEFAULT
 10
-238.9999999999998
 20
-325.3000030517575
 30
27.49999999999992
 11
-16.0
 21
-325.3000030517575
 31
27.49999999999992
  0
LINE
  5
6F
  8
DEFAULT
 10
-16.0
 20
-325.3000030517575
 30
27.49999999999992
 11
-16.0
 21
-268.3000030517575
 31
27.49999999999995
  0
LINE
  5
70
  8
DEFAULT
 10
-16.0
 20
-268.3000030517575
 30
27.49999999999995
 11
-238.9999999999998
 21
-268.3000030517575
 31
27.49999999999995
  0
LINE
  5
71
  8
DEFAULT
 10
-175.8400762302473
 20
-116.8965975864744
 30
0.0
 11
-125.8400762302473
 21
-116.8965975864744
 31
0.0
  0
LINE
  5
72
  8
DEFAULT
 10
-125.8400762302473
 20
-116.8965975864744
 30
0.0
 11
-125.8400762302473
 21
-115.1034024135256
 31
0.0
  0
LINE
  5
73
  8
DEFAULT
 10
-125.8400762302473
 20
-115.1034024135256
 30
0.0
 11
-175.8400762302473
 21
-115.1034024135256
 31
0.0
  0
LINE
  5
74
  8
DEFAULT
 10
-175.8400762302473
 20
-115.1034024135256
 30
0.0
 11
-175.8400762302473
 21
-116.8965975864744
 31
0.0
  0
CIRCLE
  5
75
  8
DEFAULT
 10
-76.5
 20
-153.5000000000001
 30
0.0
 40
2.141333210385881
  0
CIRCLE
  5
76
  8
DEFAULT
 10
-157.0451308052842
 20
-205.0815644380071
 30
0.0
 40
2.07904528558521
  0
LINE
  5
77
  8
DEFAULT
 10
-72.50000000000011
 20
-207.5000000000001
 30
0.0
 11
-72.49999999999997
 21
-149.5000000000001
 31
0.0
  0
LINE
  5
78
  8
DEFAULT
 10
-72.49999999999997
 20
-149.5000000000001
 30
0.0
 11
-159.5
 21
-149.4999999999999
 31
0.0
  0
LINE
  5
79
  8
DEFAULT
 10
-159.5
 20
-149.4999999999999
 30
0.0
 11
-159.5000000000001
 21
-207.4999999999999
 31
0.0
  0
LINE
  5
7A
  8
DEFAULT
 10
-159.5000000000001
 20
-207.4999999999999
 30
0.0
 11
-72.50000000000011
 21
-207.5000000000001
 31
0.0
  0
CIRCLE
  5
7B
  8
DEFAULT
 10
-238.0
 20
-37.0
 30
0.0
 40
2.5
  0
CIRCLE
  5
7C
  8
DEFAULT
 10
238.0
 20
-211.0
 30
0.0
 40
2.5
210
0.0
220
0.0
230
-1.0
  0
CIRCLE
  5
7D
  8
DEFAULT
 10
-17.0
 20
-211.0
 30
0.0
 40
2.5
  0
CIRCLE
  5
7E
  8
DEFAULT
 10
17.0
 20
-37.0
 30
0.0
 40
2.5
210
0.0
220
0.0
230
-1.0
  0
CIRCLE
  5
7F
  8
DEFAULT
 10
-131.8
 20
-83.0
 30
0.0
 40
2.121848811644611
  0
CIRCLE
  5
80
  8
DEFAULT
 10
204.0
 20
-83.0
 30
0.0
 40
2.121848811644611
210
0.0
220
0.0
230
-1.0
  0
CIRCLE
  5
81
  8
DEFAULT
 10
131.8
 20
-47.0
 30
0.0
 40
2.121848811644611
210
0.0
220
0.0
230
-1.0
  0
CIRCLE
  5
82
  8
DEFAULT
 10
-204.0
 20
-47.0
 30
0.0
 40
2.121848811644611
  0
LINE
  5
83
  8
DEFAULT
 10
-206.0
 20
-85.0
 30
0.0
 11
-129.8
 21
-85.0
 31
0.0
  0
LINE
  5
84
  8
DEFAULT
 10
-129.8
 20
-85.0
 30
0.0
 11
-129.8
 21
-45.0
 31
0.0
  0
LINE
  5
85
  8
DEFAULT
 10
-129.8
 20
-45.0
 30
0.0
 11
-206.0
 21
-45.0
 31
0.0
  0
LINE
  5
86
  8
DEFAULT
 10
-206.0
 20
-45.0
 30
0.0
 11
-206.0
 21
-85.0
 31
0.0
  0
CIRCLE
  5
87
  8
DEFAULT
 10
-67.87487681898835
 20
-36.99404756731627
 30
0.0
 40
2.260287931136737
  0
CIRCLE
  5
88
  8
DEFAULT
 10
-39.18239500650864
 20
-36.99404756731627
 30
0.0
 40
2.260287931136737
  0
CIRCLE
  5
89
  8
DEFAULT
 10
-83.52288041897421
 20
-89.21520845224073
 30
0.0
 40
2.260287931136737
  0
CIRCLE
  5
8A
  8
DEFAULT
 10
-33.94961612219744
 20
-90.52125805700662
 30
0.0
 40
2.260287931136737
  0
LINE
  5
8B
  8
DEFAULT
 10
-70.18496730627136
 20
-34.38416443290955
 30
0.0
 11
-72.8651729990415
 21
-36.987792820172
 31
0.0
  0
LINE
  5
8C
  8
DEFAULT
 10
-72.8651729990415
 20
-36.987792820172
 30
0.0
 11
-84.58150074172246
 21
-36.987792820172
 31
0.0
  0
LINE
  5
8D
  8
DEFAULT
 10
-84.58150074172246
 20
-36.987792820172
 30
0.0
 11
-86.12779227429752
 21
-38.58534729215766
 31
0.0
  0
LINE
  5
8E
  8
DEFAULT
 10
-86.12779227429752
 20
-38.58534729215766
 30
0.0
 11
-86.12779227429752
 21
-104.8888948802176
 31
0.0
  0
LINE
  5
8F
  8
DEFAULT
 10
-86.12779227429752
 20
-104.8888948802176
 30
0.0
 11
-31.34827935059786
 21
-104.8888948802176
 31
0.0
  0
LINE
  5
90
  8
DEFAULT
 10
-31.34827935059786
 20
-104.8888948802176
 30
0.0
 11
-31.34827935059786
 21
-37.01569915408649
 31
0.0
  0
LINE
  5
91
  8
DEFAULT
 10
-31.34827935059786
 20
-37.01569915408649
 30
0.0
 11
-33.97672640916463
 21
-37.01569915408649
 31
0.0
  0
LINE
  5
92
  8
DEFAULT
 10
-33.97672640916463
 20
-37.01569915408649
 30
0.0
 11
-36.55825474408626
 21
-34.37238949346499
 31
0.0
  0
LINE
  5
93
  8
DEFAULT
 10
-36.55825474408626
 20
-34.37238949346499
 30
0.0
 11
-70.18496730627136
 21
-34.38416443290955
 31
0.0
  0
ARC
  5
94
  8
DEFAULT
 10
-240.0
 20
-212.0000000000002
 30
0.0
 40
10.0
 50
179.9999999999971
 51
270.0000000000005
  0
LINE
  5
95
  8
DEFAULT
 10
-250.0
 20
-35.99999999999995
 30
0.0
 11
-250.0
 21
-211.9999999999997
 31
0.0
  0
ARC
  5
96
  8
DEFAULT
 10
-240.0
 20
-36.0
 30
0.0
 40
10.0
 50
90.0
 51
179.9999999999997
  0
LINE
  5
97
  8
DEFAULT
 10
-15.00000000000018
 20
-26.00000000000007
 30
0.0
 11
-240.0
 21
-26.0
 31
0.0
  0
ARC
  5
98
  8
DEFAULT
 10
-15.00000000000001
 20
-36.00000000000007
 30
0.0
 40
10.0
 50
0.0000000000003664
 51
90.00000000000097
  0
LINE
  5
99
  8
DEFAULT
 10
-5.000000000000082
 20
-212.0000000000002
 30
0.0
 11
-5.000000000000011
 21
-36.00000000000001
 31
0.0
  0
ARC
  5
9A
  8
DEFAULT
 10
-15.00000000000008
 20
-212.0
 30
0.0
 40
10.0
 50
270.0000000000011
 51
359.999999999999
  0
LINE
  5
9B
  8
DEFAULT
 10
-239.9999999999999
 20
-222.0000000000002
 30
0.0
 11
-14.99999999999988
 21
-222.0
 31
0.0
  0
ENDSEC
  0
EOF
